<svg width="58" height="39" viewBox="0 0 58 39" fill="none" xmlns="http://www.w3.org/2000/svg">
<g clip-path="url(#clip0_3920_36612)">
<path fill-rule="evenodd" clip-rule="evenodd" d="M57.9357 0L23.8381 25.5663C20.6502 27.9449 16.6564 28.9483 12.7353 28.3558C8.81418 27.7632 5.28695 25.6233 2.92955 22.4068C0.572155 19.1903 -0.422301 15.1607 0.164953 11.2044C0.752207 7.24806 2.87307 3.68917 6.06096 1.31061L7.80528 0H20.433L10.5424 7.48923C9.76804 8.07256 9.11518 8.80407 8.62106 9.64198C8.12693 10.4799 7.80121 11.4078 7.6625 12.3727C7.38235 14.3215 7.88094 16.3027 9.04856 17.8805C10.2162 19.4584 11.9572 20.5036 13.8886 20.7862C15.82 21.0689 17.7836 20.5658 19.3474 19.3877L45.076 0H57.9357ZM11.1547 12.8534C11.0817 13.3554 11.1081 13.8671 11.2323 14.3588C11.3565 14.8505 11.5761 15.3125 11.8784 15.718C12.1785 16.1246 12.5552 16.4676 12.9867 16.7272C13.4183 16.9868 13.8964 17.158 14.3936 17.2311C14.8909 17.3041 15.3975 17.2775 15.8845 17.1528C16.3715 17.0281 16.8294 16.8078 17.232 16.5044L39.1658 0H26.3711L12.6856 10.2977C12.2745 10.5992 11.9273 10.9807 11.6644 11.4196C11.4015 11.8585 11.2282 12.3459 11.1547 12.8534ZM46.2173 13.0593L39.8245 17.8992L47.6276 28.0191H57.379L46.2451 13.0406L46.2173 13.0593ZM36.9854 20.015L30.6391 24.8549L33.005 28.0378H43.0534L36.9854 20.015Z" fill="#00477B"/>
<path d="M36.4032 30.8788L34.0866 36.105C33.8018 36.7449 33.5405 37.2088 33.3027 37.497C33.0648 37.7817 32.7884 37.9911 32.4735 38.1251C32.162 38.2591 31.7834 38.3261 31.3378 38.3261C30.9492 38.3261 30.5891 38.2759 30.2574 38.1754V37.0949C30.5857 37.2256 30.9291 37.2909 31.2876 37.2909C31.5925 37.2909 31.8471 37.2172 32.0514 37.0698C32.2591 36.9191 32.4467 36.6494 32.6142 36.2608L29.9057 30.8788H31.2022L32.9961 34.5623C33.1569 34.9107 33.2558 35.1435 33.2926 35.2608H33.3429C33.363 35.1737 33.4132 35.0346 33.4936 34.8437L35.1469 30.8788H36.4032Z" fill="#00477B"/>
<path d="M42.2424 33.0999C42.2424 33.8671 41.9912 34.4551 41.4886 34.8638C40.9861 35.2725 40.2709 35.4768 39.3429 35.4768H38.5791V38.2256H37.3781V30.8788H39.4937C40.4116 30.8788 41.0984 31.0664 41.554 31.4416C42.0129 31.8169 42.2424 32.3696 42.2424 33.0999ZM38.5791 34.4668H39.2173C39.8337 34.4668 40.286 34.3596 40.5741 34.1452C40.8622 33.9308 41.0062 33.5958 41.0062 33.1401C41.0062 32.718 40.8773 32.4031 40.6193 32.1954C40.3613 31.9877 39.9593 31.8839 39.4133 31.8839H38.5791V34.4668Z" fill="#00477B"/>
<path d="M48.2676 38.2256L47.5339 36.1854H44.7248L44.0062 38.2256H42.7399L45.4887 30.8487H46.7952L49.544 38.2256H48.2676ZM47.2173 35.1502L46.5289 33.1502C46.4786 33.0162 46.4083 32.8051 46.3178 32.517C46.2307 32.2289 46.1704 32.0179 46.1369 31.8839C46.0465 32.2959 45.9141 32.7465 45.7399 33.2356L45.0766 35.1502H47.2173Z" fill="#00477B"/>
<path d="M56.0264 38.2256H54.8254V31.909H52.7349C52.4703 34.0531 52.2575 35.512 52.0967 36.2859C51.9393 37.0598 51.7165 37.5991 51.4284 37.904C51.1403 38.2055 50.7584 38.3512 50.2827 38.3412C50.0381 38.3412 49.8053 38.2993 49.5842 38.2156V37.2155C49.7751 37.2993 49.9611 37.3412 50.142 37.3412C50.3832 37.3412 50.5708 37.1971 50.7048 36.909C50.8421 36.6176 50.9912 35.976 51.152 34.9844C51.3162 33.9928 51.5105 32.6242 51.7349 30.8788H56.0264V38.2256Z" fill="#00477B"/>
</g>
<defs>
<clipPath id="clip0_3920_36612">
<rect width="58" height="38.3726" fill="white"/>
</clipPath>
</defs>
</svg>
